<svg width="77" height="20" viewBox="0 0 77 20" fill="none" xmlns="http://www.w3.org/2000/svg">
<path d="M5.95297 4.21375C6.70701 4.21375 7.38169 4.37556 7.97698 4.65874C8.61197 4.94193 9.12789 5.34648 9.60413 5.83193C10.0407 6.31739 10.3979 6.92421 10.6757 7.61194C10.9138 8.29967 11.0725 8.9874 11.0725 9.75604C11.0725 10.5247 10.9535 11.2529 10.6757 11.9001C10.4375 12.5879 10.0804 13.1542 9.60413 13.6801C9.16758 14.1656 8.61197 14.5701 7.97698 14.8533C7.342 15.1365 6.66733 15.2983 5.95297 15.2983C5.35767 15.2983 4.76238 15.177 4.20677 14.9747C3.65116 14.7724 3.17492 14.4892 2.85743 14.1251V19.2629H0V4.53738H2.46057L2.85743 5.26556C3.2543 4.90147 3.73053 4.61829 4.20677 4.49693C4.72269 4.29465 5.31799 4.21375 5.95297 4.21375ZM5.5958 12.7092C5.95297 12.7092 6.31015 12.6283 6.62765 12.4665C6.94514 12.3047 7.22294 12.1024 7.50074 11.8597C7.73886 11.617 7.93729 11.2933 8.09604 10.9292C8.25478 10.5651 8.33416 10.201 8.33416 9.79649C8.33416 9.39195 8.25478 9.02785 8.09604 8.66376C7.93729 8.29967 7.73886 7.97603 7.50074 7.7333C7.26262 7.49057 6.98482 7.24785 6.62765 7.12648C6.31015 6.96466 5.95297 6.88375 5.5958 6.88375C5.23862 6.88375 4.88144 6.92421 4.56394 7.04557C4.24645 7.16694 3.96865 7.32876 3.73053 7.57149C3.49241 7.81421 3.29398 8.09739 3.17492 8.50194C3.05586 8.86603 2.97649 9.31103 2.97649 9.83694C2.97649 10.3224 3.05586 10.7674 3.17492 11.1315C3.29398 11.4956 3.49241 11.7788 3.73053 12.062C3.96865 12.3047 4.24645 12.507 4.56394 12.6283C4.84175 12.6283 5.19893 12.7092 5.5958 12.7092Z" fill="white"/>
<path d="M15.1206 5.99375C15.2396 5.75102 15.4381 5.54875 15.5968 5.34648C15.7952 5.1442 15.9937 4.94193 16.2318 4.78011C16.4699 4.61829 16.7477 4.49693 17.1049 4.37556C17.4224 4.29465 17.7796 4.21375 18.1764 4.21375C18.6527 4.21375 19.2083 4.29465 19.8036 4.45647L19.5257 7.04557C19.367 7.00512 19.2083 6.96466 19.0495 6.92421C18.9305 6.88375 18.7717 6.88376 18.6527 6.8433C18.4939 6.80285 18.3748 6.80284 18.2558 6.80284C17.8192 6.80284 17.3827 6.88375 17.0255 7.00512C16.6286 7.12648 16.3111 7.32876 16.0333 7.53103C15.7555 7.77376 15.5174 8.01649 15.3587 8.34012C15.1999 8.66376 15.1206 8.9874 15.1206 9.35149V14.9342H12.2631V4.41602H14.8824L15.1206 5.99375Z" fill="white"/>
<path d="M23.9706 15.0555H21.1132V4.53729H23.9706V15.0555Z" fill="white"/>
<path d="M29.8442 12.426H34.6066V15.0556H26.074V12.5878L30.3205 7.12644H26.4709V4.49689H34.4875V6.43871L29.8442 12.426Z" fill="white"/>
<path d="M41.5914 4.21375C42.3851 4.21375 43.0598 4.37556 43.6948 4.6992C44.3298 5.02284 44.8854 5.42739 45.3219 5.9533C45.7982 6.47921 46.1157 7.04557 46.3935 7.7333C46.6316 8.42103 46.7507 9.10877 46.7507 9.79649C46.7507 10.201 46.711 10.6865 46.5919 11.172H39.2102C39.488 11.6574 39.8849 12.062 40.4008 12.3856C40.9167 12.7092 41.4724 12.871 42.0677 12.871C42.663 12.871 43.1789 12.8306 43.6551 12.7092C44.0917 12.6283 44.5282 12.4665 44.9251 12.3451L45.8775 14.1656C45.3616 14.5297 44.7663 14.8129 44.1313 15.0151C43.4963 15.2174 42.782 15.2983 42.028 15.2983C41.1945 15.2983 40.4405 15.1365 39.7261 14.8533C39.0118 14.5701 38.4165 14.1656 37.8609 13.6801C37.3449 13.1947 36.9084 12.5879 36.6306 11.9001C36.3131 11.2124 36.1544 10.4842 36.1544 9.75604C36.1544 8.9874 36.2734 8.29967 36.5512 7.61194C36.829 6.92421 37.2259 6.35784 37.7021 5.83193C38.1784 5.34648 38.7737 4.94193 39.4087 4.61829C40.123 4.37556 40.8374 4.21375 41.5914 4.21375ZM43.9329 8.90649C43.7742 8.29967 43.4567 7.81421 43.0201 7.40966C42.5836 7.00512 42.1073 6.8433 41.5517 6.8433C40.9961 6.8433 40.4802 7.04557 40.0436 7.40966C39.6071 7.77376 39.2896 8.29967 39.1308 8.90649H43.9329Z" fill="white"/>
<path d="M60.3631 4.53734C60.7203 4.53734 61.1569 4.61825 61.5537 4.73962C61.9903 4.86098 62.3871 5.10371 62.7443 5.42735C63.1015 5.75098 63.419 6.19599 63.6571 6.76235C63.8952 7.32872 64.0143 8.0569 64.0143 8.90645V15.0556H61.1569V9.43236C61.1569 9.02781 61.1172 8.66372 61.0378 8.34008C60.9584 8.0569 60.8394 7.81417 60.6806 7.6119C60.5219 7.40962 60.3631 7.28826 60.1647 7.20735C59.9663 7.12644 59.7678 7.08598 59.5694 7.08598C59.371 7.08598 59.1725 7.12644 58.9741 7.20735C58.7757 7.28826 58.6169 7.40963 58.4582 7.57145C58.2994 7.73326 58.1804 7.97599 58.101 8.25917C58.0216 8.54236 57.982 8.94691 57.982 9.39191V15.0151H55.1245V9.39191C55.1245 8.54236 54.9658 7.93553 54.688 7.6119C54.4102 7.28826 53.9736 7.08598 53.418 7.08598C53.0211 7.08598 52.664 7.28826 52.3465 7.65235C52.029 8.01645 51.8702 8.62326 51.8702 9.43236V15.0151H49.0128V4.49689H51.4734L51.8702 5.4678C52.1877 5.14416 52.5449 4.90144 52.9815 4.73962C53.418 4.5778 53.8546 4.49689 54.3308 4.49689C54.5689 4.49689 54.8467 4.53734 55.1245 4.5778C55.4023 4.61825 55.6801 4.69916 55.9182 4.86098C56.1961 4.98234 56.4342 5.14416 56.6723 5.34644C56.9104 5.54871 57.1485 5.83189 57.347 6.11507C57.5057 5.83189 57.7042 5.58916 57.9423 5.38689C58.1804 5.18462 58.4185 5.0228 58.6963 4.86098C58.9741 4.73961 59.2519 4.61825 59.5694 4.5778C59.8075 4.53734 60.0853 4.53734 60.3631 4.53734Z" fill="#FFE600"/>
<path d="M70.9594 4.21375C71.7531 4.21375 72.4278 4.37556 73.0628 4.6992C73.6978 5.02284 74.2534 5.42739 74.6899 5.9533C75.1662 6.47921 75.4837 7.04557 75.7615 7.7333C75.9996 8.42103 76.1187 9.10877 76.1187 9.79649C76.1187 10.201 76.079 10.6865 75.9599 11.172H68.5782C68.856 11.6574 69.2529 12.062 69.7688 12.3856C70.2847 12.7092 70.8404 12.871 71.4357 12.871C72.031 12.871 72.5469 12.8306 73.0231 12.7092C73.4597 12.6283 73.8962 12.4665 74.2931 12.3451L75.2455 14.1656C74.7296 14.5297 74.1343 14.8129 73.4993 15.0151C72.8644 15.2174 72.15 15.2983 71.396 15.2983C70.5625 15.2983 69.8085 15.1365 69.0941 14.8533C68.3798 14.5701 67.7845 14.1656 67.2289 13.6801C66.713 13.1947 66.2764 12.5879 65.9986 11.9001C65.6811 11.2124 65.5224 10.4842 65.5224 9.75604C65.5224 8.9874 65.6414 8.29967 65.9192 7.61194C66.197 6.92421 66.5939 6.35784 67.0702 5.83193C67.5464 5.34648 68.1417 4.94193 68.7767 4.61829C69.491 4.37556 70.2054 4.21375 70.9594 4.21375ZM73.3009 8.90649C73.1422 8.29967 72.8247 7.81421 72.3881 7.40966C71.9516 7.00512 71.4753 6.8433 70.9197 6.8433C70.3641 6.8433 69.8482 7.04557 69.4116 7.40966C68.9751 7.77376 68.6576 8.29967 68.4989 8.90649H73.3009Z" fill="#FFE600"/>
<circle cx="22.6086" cy="1.50491" r="1.50491" fill="white"/>
</svg>
